<svg xmlns="http://www.w3.org/2000/svg" xml:space="preserve" width="100%" height="100%" viewBox="0 0 512 512"><path d="M136.647 124.61c0 7.36-6.229 13.59-14.16 13.59-7.359 0-13.59-6.23-13.59-13.59s6.23-13.59 13.59-13.59c7.931 0 14.16 6.23 14.16 13.59z" style="fill:#f34e2d"/><path d="M113.897 133.67c0-7.36 6.23-13.59 13.59-13.59 3.487 0 6.645 1.207 9.09 3.183-.705-6.757-6.648-12.243-14.09-12.243-7.359 0-13.59 6.23-13.59 13.59 0 4.174 2.007 7.981 5.083 10.498a13.425 13.425 0 0 1-.083-1.438z" style="fill:#e03d22"/><path d="M308.998 173.53c0 33.07-20.32 59.85-45.3 59.85-25.07 0-45.311-26.78-45.311-59.85 0-36.98 29.5-55.6 47.721-89.69 15.34 32.47 42.89 57.13 42.89 89.69z" style="fill:#fbb14f"/><path d="M227.162 184.863c0-36.071 28.063-54.681 46.353-87.211-2.646-4.47-5.159-9.055-7.406-13.812-18.221 34.09-47.721 52.71-47.721 89.69 0 19.723 7.201 37.204 18.331 48.106-5.986-10.146-9.557-22.901-9.557-36.773z" style="fill:#e0973f"/><path d="M331.138 298.76h10.49c2.36 0 4.63-.391 6.75-1.1v153.6c0 12.27-10.07 22.211-22.49 22.211h-125.9c-.14 0-.29 0-.43-.012-12.22-.219-22.05-10.068-22.05-22.199V328.75c2.11.709 4.38 1.1 6.74 1.1 11.59 0 20.979-9.279 20.979-20.73v41.461c0 11.449 9.4 20.73 20.99 20.73h10.49c11.59 0 20.99-9.281 20.99-20.73v-20.73c0 11.451 9.39 20.73 20.979 20.73h10.49c11.59 0 20.99-9.279 20.99-20.73v-51.82c.002 11.449 9.392 20.729 20.982 20.729z" style="fill:#ef3e5c"/><path d="M187.008 458.26V335.75c2.11.709 4.38 1.1 6.74 1.1 4.24 0 8.181-1.252 11.479-3.389v-24.342c0 11.451-9.39 20.73-20.979 20.73-2.36 0-4.63-.391-6.74-1.1v122.51c0 9.408 5.915 17.441 14.271 20.678a21.938 21.938 0 0 1-4.771-13.677z" style="fill:#e42a53"/><path d="M362.608 246.94v31.089c0 9.121-5.95 16.85-14.23 19.631a21.25 21.25 0 0 1-6.75 1.1h-10.49c-11.59 0-20.979-9.279-20.979-20.73v51.82c0 11.451-9.4 20.73-20.99 20.73h-10.49c-11.59 0-20.979-9.279-20.979-20.73v20.73c0 11.449-9.4 20.73-20.99 20.73h-10.49c-11.59 0-20.99-9.281-20.99-20.73v-41.461c0 11.451-9.39 20.73-20.979 20.73-2.36 0-4.63-.391-6.74-1.1-8.28-2.77-14.24-10.51-14.24-19.631V246.94h199.337z" style="fill:#d30045"/><path d="M172.328 318.5v-62.18H362.609v-9.38H163.268v62.179c0 7.922 4.499 14.797 11.105 18.283a20.411 20.411 0 0 1-2.045-8.902z" style="fill:#af0945"/><path d="M267.468 61.65a5 5 0 0 1-5-5V38.53a5 5 0 1 1 10 0v18.12a5 5 0 0 1-5 5zM326.792 116.02a5 5 0 0 1-3.065-8.953l17.7-13.71a5 5 0 1 1 6.123 7.906l-17.7 13.71a4.982 4.982 0 0 1-3.058 1.047zM208.154 116.02a4.983 4.983 0 0 1-3.058-1.046l-17.71-13.71a5 5 0 1 1 6.121-7.907l17.71 13.71a5 5 0 0 1-3.063 8.953zM299.925 86.241a4.999 4.999 0 0 1-4.574-7.013l6.2-14.11a5 5 0 1 1 9.154 4.023l-6.2 14.11a5 5 0 0 1-4.58 2.99zM234.72 86.241a5 5 0 0 1-4.58-2.99l-6.199-14.11a5 5 0 0 1 9.155-4.023l6.199 14.11a5 5 0 0 1-4.575 7.013z" style="fill:#fbb14f"/><path d="M117.772 241.94c0 7.36-6.229 13.59-14.16 13.59-7.359 0-13.59-6.23-13.59-13.59s6.23-13.59 13.59-13.59c7.931 0 14.16 6.23 14.16 13.59z" style="fill:#f34e2d"/><path d="M95.022 251c0-7.36 6.23-13.59 13.59-13.59 3.487 0 6.645 1.207 9.09 3.183-.705-6.757-6.648-12.243-14.09-12.243-7.359 0-13.59 6.23-13.59 13.59 0 4.174 2.007 7.981 5.083 10.498a13.425 13.425 0 0 1-.083-1.438z" style="fill:#e03d22"/><path d="M400.358 212.16c0 7.36-6.23 13.59-14.16 13.59-7.359 0-13.59-6.23-13.59-13.59s6.23-13.59 13.59-13.59c7.93 0 14.16 6.23 14.16 13.59z" style="fill:#f34e2d"/><path d="M377.608 221.22c0-7.36 6.23-13.59 13.59-13.59 3.487 0 6.645 1.207 9.09 3.183-.705-6.757-6.648-12.243-14.09-12.243-7.359 0-13.59 6.23-13.59 13.59 0 4.174 2.006 7.981 5.083 10.498a13.425 13.425 0 0 1-.083-1.438z" style="fill:#e03d22"/><path d="M185.926 413.65a5.001 5.001 0 0 1-1.284-9.832l135.92-36.24c2.671-.713 5.407.875 6.119 3.543a5 5 0 0 1-3.543 6.119l-135.92 36.24a4.97 4.97 0 0 1-1.292.17zM183.377 450.615a4.877 4.877 0 0 1-4.696-3.574 4.875 4.875 0 0 1 3.394-6.004l159.116-44.203a4.876 4.876 0 0 1 6.005 3.395 4.876 4.876 0 0 1-3.395 6.004l-159.115 44.203a4.897 4.897 0 0 1-1.309.179zM199.55 478.461c-2.313 0-4.405-1.604-4.907-3.951-.573-2.688 1.104-5.328 3.782-5.922l108.61-27.148a4.997 4.997 0 0 1 6.063 3.637 5 5 0 0 1-3.638 6.064l-108.69 27.17a5.09 5.09 0 0 1-1.22.15z" style="fill:#e42a53"/><path d="M416.978 478.471h-299.02c-2.762 0-5-2.238-5-5s2.238-5 5-5h299.02a5 5 0 1 1 0 10z" style="fill:#ef3e5c"/></svg>